<?xml version="1.0" encoding="utf-8"?>
<!-- Generator: Adobe Illustrator 23.0.3, SVG Export Plug-In . SVG Version: 6.00 Build 0)  -->
<svg version="1.1" id="Layer_1" xmlns="http://www.w3.org/2000/svg" xmlns:xlink="http://www.w3.org/1999/xlink" x="0px" y="0px"
	 viewBox="0 0 808.91 1699.66" style="enable-background:new 0 0 808.91 1699.66;" xml:space="preserve">
<style type="text/css">
	.st0{fill:#3387C1;}
</style>
<g>
	<path class="st0" d="M791.85,1302.14l-0.02-0.02c-6.99-19.63-16.17-38.68-27.23-56.49c-1.88-3.14-3.95-6.19-5.92-9.14
		c-0.9-1.34-1.8-2.68-2.83-4.19c-1.05-1.53-2.19-3.05-3.31-4.56l-6.53-8.43c-6.82-8.35-14.18-16.3-21.85-23.56
		c-15.86-14.98-33.52-27.53-52.5-37.32c-9.99-5.14-19.85-9.45-29.35-12.79c-10.06-3.58-20.49-6.43-30.96-8.53
		c-20.32-4.07-41.51-5.36-62.95-3.83c-20.88,1.51-41.8,6.36-62.12,14.4c-4.73,1.8-9.23,3.9-13.62,5.92l-1.92,0.95
		c-4.31,2.19-8.74,4.46-13.03,7.02c-9.45,5.53-18.17,11.47-25.92,17.64c-7.94,6.33-15.66,13.3-23.04,20.9l-5.26,5.63
		c-1.44,1.51-2.68,3.09-3.9,4.63c-0.51,0.63-1,1.27-1.51,1.88l-0.22,0.27c-2.97,3.9-6.14,8.14-9.09,12.67
		c-11.64,17.39-20.46,37.37-25.5,57.61c-1.41,5.48-2.44,10.79-3.24,15.27l-0.39,2.65c-0.27,1.85-0.54,3.7-0.73,5.55l-0.02,0.22
		c-0.07,0.8-0.15,1.61-0.24,2.39c-0.17,1.78-0.37,3.61-0.44,5.36c-0.66,10.55-0.32,21.24,1.05,31.84
		c1.27,9.92,3.58,20.22,6.82,30.52c1.68,5.43,3.65,10.57,5.19,14.47l0.93,2.17c0.68,1.63,1.36,3.26,2.24,5.19
		c0.32,0.66,0.61,1.32,0.9,1.97c0.78,1.68,1.63,3.61,2.85,5.63c8.94,15.95,20.51,31.01,36.39,47.38l0.73,0.76l1.05,0.95
		c7.72,6.21,15.08,11.28,22.63,15.54c8.94,4.92,17.13,8.57,24.92,11.21c17.52,6.04,36.22,8.67,54.18,7.6
		c10.43-0.71,18.95-2.07,26.84-4.31c2.53-0.58,4.87-1.34,6.89-2.05c0.63-0.22,1.27-0.41,1.92-0.63c1.41-0.46,3.02-0.98,4.58-1.63
		c4.41-1.8,8.4-3.61,12.18-5.55c16.83-8.55,31.06-19.59,42.31-32.79c5.99-7.04,11.08-14.69,15.1-22.65
		c1.95-3.8,3.48-7.58,4.99-11.21l0.34-0.85c0.63-1.56,1.15-3.04,1.63-4.51c0.19-0.61,0.41-1.24,0.61-1.85l0.24-0.73
		c0.15-0.63,0.34-1.27,0.51-1.9c0.41-1.46,0.83-2.97,1.14-4.48c1.97-8.77,2.8-17.88,2.44-27.16c-0.39-8.82-1.83-17.68-4.26-26.31
		c-2.34-8.31-5.75-16.54-10.21-24.51c-4.48-7.99-9.79-15.18-15.81-21.39c-6.63-6.84-13.74-12.4-21.02-16.42
		c-7.92-4.46-16.35-7.6-25.04-9.33l-4.17,17.98c6.65,1.78,13.01,4.6,18.93,8.43c5.38,3.46,10.57,8.09,15.44,13.76
		c4.38,5.14,8.18,11.03,11.3,17.56c3.14,6.53,5.43,13.2,6.85,19.83c1.49,6.87,2.17,13.84,2.05,20.63
		c-0.17,6.92-1.19,13.67-3.12,20.19c-0.24,0.95-0.58,1.85-0.9,2.78c-0.2,0.58-0.39,1.17-0.58,1.73c-0.27,0.66-0.55,1.28-0.79,1.91
		c-0.33,0.85-0.95,2.21-1.35,3.03l-0.23,0.47c-1.39,2.87-2.85,5.85-4.41,8.48c-3.36,5.7-7.48,11.11-12.25,16.05
		c-9.16,9.48-20.58,17.2-34.01,23c-2.92,1.27-6.21,2.53-9.79,3.75c-0.71,0.24-1.58,0.46-2.53,0.68c-0.73,0.19-1.44,0.38-2.1,0.57
		c-1.37,0.39-2.75,0.73-4.15,0.97l-0.81,0.14c-5.63,1.24-11.98,1.85-19.88,1.9c-25.68-0.1-51.76-10.62-71.64-28.94
		c-5.7-6.72-10.48-12.89-14.59-18.88c-2.29-3.36-4.46-6.75-6.43-10.11c-0.97-1.68-1.92-3.36-2.9-5.16
		c-0.44-0.83-0.88-1.66-1.32-2.56l-1.41-2.85c-0.24-0.41-0.59-1.36-0.9-2.22c-0.24-0.68-0.51-1.39-0.78-2.05
		c-0.41-1.12-0.85-2.34-1.27-3.53l-0.66-1.87c-1.07-3.34-2.29-7.28-3.24-11.18c-1.9-7.79-3.12-15.35-3.56-22.48
		c-0.46-7.45-0.24-14.93,0.68-22.22l0.02-0.24c0.12-1.05,0.29-2.07,0.46-3.12c0.12-0.76,0.24-1.49,0.37-2.24
		c0.2-1.02,0.39-2.05,0.61-3.05c0.15-0.73,0.29-1.46,0.44-2.22c1.05-4.07,1.95-7.48,3.07-10.89c4.6-14.42,11.55-27.75,20.71-39.76
		c2.24-3,4.8-6.02,7.06-8.62c0.49-0.54,0.97-1.05,1.44-1.58c0.68-0.76,1.29-1.41,1.92-2l4.14-3.87
		c5.85-5.29,11.94-10.13,18.15-14.47c5.87-4.09,12.28-7.89,19.68-11.62c2.7-1.39,5.55-2.63,8.55-3.95l3.26-1.34
		c3.02-1.14,5.87-2.24,8.87-3.17c14.4-4.7,29.38-7.21,43.38-7.28c15.49-0.12,30.5,1.75,44.63,5.53c14.13,3.75,27.33,9.4,40.44,17.3
		c12.38,7.43,23.75,16.69,33.81,27.48c4.92,5.31,9.6,11.03,13.81,16.93l3.19,4.65c0.39,0.61,0.78,1.22,1.17,1.8
		c0.54,0.83,1.07,1.66,1.58,2.51c0.75,1.34,1.51,2.63,2.29,3.95c1.17,2,2.29,3.9,3.36,6.02c7.21,13.47,12.93,27.58,17.03,41.85
		c8.14,29.18,9.67,58.9,4.51,88.52c-1.17,7.58-2.56,13.76-4.65,20.75c-1.95,6.5-4.46,13.28-7.43,20.07
		c-1.46,3.39-3.04,6.72-4.65,9.91c-1.29,2.56-3.24,6.33-5.31,9.67l-5.6,9.5l-6.28,8.94l-0.24,0.36c-1.07,1.73-2.53,3.46-4.09,5.31
		c-0.76,0.93-1.53,1.85-2.17,2.65l-1.53,1.9c-1.75,2.14-3.41,4.19-5.16,5.89l-0.19,0.19c-1.14,1.19-2.29,2.41-3.43,3.61
		c-1.36,1.46-2.73,2.9-4.12,4.31l-8.11,7.36c-12.01,10.23-23.65,18.44-35.59,25.14c-13.52,7.43-27.21,13.62-40.63,18.29
		c-14.69,4.92-29.43,8.72-43.75,11.23c-2.24,0.37-4.48,0.68-6.72,1c-1.58,0.2-3.17,0.44-4.53,0.63c-0.78,0.1-1.56,0.22-2.36,0.34
		c-1.07,0.17-2.07,0.32-2.97,0.37l-10.74,0.95c-0.41,0.02-0.8,0.07-1.22,0.12c-0.27,0.02-0.54,0.07-0.78,0.07l-8.97-0.1
		c-0.44,0-0.85,0-1.32-0.02l-3.02-0.12c-15.27-0.49-30.13-2.19-44.19-5.04c-28.28-5.7-54.86-16.52-78.97-32.13
		c-5.99-3.87-12.03-8.14-17.44-12.38l-0.41-0.29c-1.51-1.05-3.17-2.53-4.9-4.12c-0.98-0.88-1.95-1.75-2.85-2.51l-10.43-9.11
		l-13.84-14.08l-0.29-0.27c-0.61-0.56-1.32-1.41-2.07-2.31l-11.96-14.03c-17.9-22.56-32.2-47.96-42.46-75.56
		c-18.29-49.06-22.82-103.94-13.13-158.7l0.07-0.41c3.65-7.41,7.11-14.96,10.38-22.58c18.46-43.26,30.5-89.91,34.88-138.78
		c3.39-2.56,6.75-5.19,10.06-7.87c-3.8-23.73-5.75-48.06-5.75-72.86c0-24.16,1.85-47.89,5.46-71.03
		c2.53-16.35,5.92-32.42,10.13-48.13c25.6-95.83,81.34-179.33,156.44-239.72c-6.19-39.05-17.32-76.44-32.67-111.57
		C397.91,450.8,330.38,375.7,245.81,326.74c30.23-6.26,61.56-9.55,93.64-9.55c102.82,0,197.77,33.71,274.41,90.69
		c23.26-28.6,43.19-60.05,59.12-93.74C535.17,261.82,429.02,145.21,391.09,0.96C235.19,24.8,105.03,126.82,41.89,265.77
		c-26.36,58-41.05,122.43-41.05,190.27c0,3.17,0.02,6.33,0.1,9.5c0.05,3.02,0.15,6.02,0.27,9.04c0.37,9.13,1,18.22,1.9,27.23
		c4.68,47.5,16.59,92.91,34.61,135.05c32.03,74.98,83.43,139.73,147.89,187.96c0.24,6.16,0.37,12.33,0.37,18.54
		c0,117.83-44.29,225.33-117.1,306.76c12.89,9.38,26.31,18.12,40.17,26.14c0.73-0.12,1.44-0.29,2.17-0.44
		c-0.2,0.46-0.37,0.93-0.51,1.41c-17.51,48.65-27.04,101.09-27.04,155.75c0,33.66,3.61,66.5,10.5,98.12
		c7.24-4.92,14.32-10.06,21.24-15.4c5.19,17.05,11.42,33.71,18.66,49.91c17.88,39.92,41.53,76.27,70.35,108.01l17.86,18.46
		c1.51,1.53,3.04,3.14,4.87,4.7l20.39,18.15l16.15,12.5c1.22,0.9,2.39,1.8,3.58,2.73c2.97,2.31,6.06,4.7,9.65,6.97
		c8.96,6.09,18.05,11.69,27.75,17.1c19.24,10.72,39.39,19.63,59.9,26.46c20.44,6.82,41.8,11.76,63.48,14.71
		c10.84,1.49,21.9,2.48,33.08,3c10.08,0.46,20.27,0.54,30.5,0.22l3.85-0.12c0.95-0.02,2-0.07,3.02-0.15l13.86-0.85
		c1.12-0.1,2.22-0.24,3.31-0.41l17.32-2.61c2.07-0.32,3.9-0.68,5.65-1.07c0.78-0.17,1.58-0.34,2.58-0.54
		c1.53-0.32,3.07-0.63,4.63-0.95c3.53-0.73,7.06-1.46,10.67-2.29c20-4.85,40.15-11.43,59.92-19.56
		c19.03-8.04,37.9-18.05,56.17-29.79c17.2-11.16,34.05-24.77,50.08-40.44l11.11-11.55l0.29-0.29c2.58-2.95,5.09-5.97,7.53-8.89
		l2.65-3.19c3.24-3.7,6.04-7.62,8.75-11.4l1.41-1.95c0.76-1.1,1.51-2.14,2.27-3.21c2.36-3.29,4.82-6.68,6.99-10.45l8.11-13.42
		l7.43-14.49c2.75-5.33,4.99-10.38,6.82-14.66c2.07-4.9,4.07-9.94,5.89-15.01c3.82-10.55,6.94-21.07,9.28-31.3
		c2.39-10.21,4.24-21.73,5.19-32.3C811,1385.6,805.96,1342.17,791.85,1302.14z M401.56,139.73c22.87,0,41.41,18.54,41.41,41.41
		c0,22.87-18.54,41.41-41.41,41.41c-22.87,0-41.41-18.54-41.41-41.41C360.15,158.28,378.69,139.73,401.56,139.73z"/>
	<path class="st0" d="M479.21,1699.66c-6.08,0-12.14-0.14-18.13-0.41c-11.21-0.51-22.36-1.52-33.16-3
		c-21.77-2.96-43.18-7.92-63.63-14.75c-20.48-6.81-40.68-15.73-60.05-26.52c-9.71-5.42-18.81-11.02-27.81-17.14
		c-3.46-2.18-6.43-4.46-9.69-7c-1.19-0.92-2.35-1.82-3.56-2.72l-16.16-12.51l-20.43-18.19c-1.61-1.37-3-2.78-4.33-4.15l-0.58-0.59
		l-17.86-18.47c-28.86-31.79-52.58-68.2-70.51-108.25c-7.08-15.85-13.24-32.27-18.34-48.84c-6.61,5.07-13.44,10-20.31,14.68
		l-1.04,0.71l-0.27-1.23c-6.98-32.01-10.52-65.08-10.52-98.3c0-53.61,9.11-106.1,27.08-156.03c-0.23,0.05-0.47,0.09-0.71,0.13
		l-0.3,0.05l-0.26-0.15c-13.75-7.95-27.29-16.76-40.24-26.19l-0.76-0.55l0.63-0.7c75.37-84.3,116.88-193.04,116.88-306.19
		c0-6.01-0.12-12.1-0.35-18.1c-64.96-48.7-116.07-113.72-147.83-188.06c-18.41-43.04-30.08-88.56-34.68-135.3
		c-0.9-9.01-1.54-18.19-1.91-27.28c-0.12-3.03-0.22-6.03-0.27-9.06c-0.07-3.17-0.1-6.34-0.1-9.51c0-66.44,13.83-130.58,41.12-190.62
		c31.31-68.91,79.75-129.73,140.07-175.89c61.25-46.87,133.78-77.79,209.77-89.41L391.72,0l0.19,0.74
		c37.63,143.14,142.82,260,281.37,312.61l0.86,0.33l-0.39,0.83c-15.81,33.44-35.74,65.03-59.23,93.91l-0.51,0.63l-0.65-0.48
		c-79.65-59.22-174.37-90.52-273.9-90.52c-30.74,0-61.43,3.06-91.29,9.09c83.73,49.02,151.16,124.77,190.02,213.52
		c15.63,35.79,26.65,73.39,32.73,111.77l0.08,0.49l-0.38,0.31c-75.74,60.9-131.2,145.88-156.15,239.28
		c-4.19,15.64-7.6,31.8-10.11,48.04c-3.61,23.19-5.45,47.05-5.45,70.9c0,24.49,1.93,48.95,5.74,72.73l0.08,0.49l-0.38,0.31
		c-3.27,2.64-6.56,5.22-9.78,7.66c-4.34,47.88-16.08,94.53-34.91,138.66c-3.31,7.74-6.79,15.31-10.34,22.51l-0.05,0.29
		c-9.67,54.63-5.15,109.36,13.09,158.26c10.2,27.46,24.44,52.8,42.33,75.33l12.07,14.15c0.69,0.82,1.34,1.6,1.88,2.09l0.29,0.27
		l13.87,14.11l10.38,9.07c0.89,0.75,1.88,1.63,2.86,2.52c1.69,1.55,3.33,3.02,4.81,4.05l0.42,0.3c5.25,4.12,11.26,8.38,17.41,12.36
		c24.03,15.56,50.5,26.33,78.68,32.01c14.07,2.85,28.88,4.54,44.05,5.03l3.03,0.12c0.46,0.02,0.86,0.02,1.28,0.02l8.98,0.1
		c0.11,0,0.24-0.02,0.37-0.03l0.47-0.05c0.37-0.04,0.72-0.08,1.09-0.11l10.72-0.95c0.85-0.05,1.77-0.18,2.91-0.36l0.41-0.06
		c0.67-0.1,1.32-0.2,1.98-0.28l1.05-0.15c1.1-0.16,2.29-0.33,3.48-0.48l0.23-0.03c2.15-0.3,4.31-0.61,6.46-0.96
		c14.18-2.49,28.86-6.25,43.62-11.2c13.26-4.62,26.88-10.75,40.49-18.23c11.94-6.7,23.53-14.89,35.45-25.04l8.09-7.34
		c1.35-1.38,2.71-2.81,4.07-4.26l3.64-3.82c1.67-1.62,3.24-3.55,4.91-5.59l1.73-2.14c0.4-0.51,0.87-1.08,1.36-1.67l0.81-0.99
		c1.57-1.86,3-3.56,4.03-5.22l0.26-0.39l6.29-8.95l5.57-9.44c2.04-3.29,3.99-7.07,5.28-9.62c1.72-3.41,3.28-6.73,4.63-9.87
		c2.97-6.79,5.46-13.51,7.4-19.98c2.09-6.96,3.47-13.14,4.62-20.64c5.13-29.43,3.62-59.09-4.49-88.16
		c-4.09-14.28-9.8-28.31-16.96-41.68c-1.03-2.03-2.09-3.84-3.21-5.75l-0.14-0.24c-0.78-1.32-1.54-2.61-2.3-3.96
		c-0.5-0.82-1.02-1.64-1.56-2.46c-0.39-0.58-0.78-1.19-1.17-1.81l-3.18-4.63c-4.18-5.85-8.8-11.51-13.73-16.83
		c-10.03-10.76-21.34-19.95-33.63-27.33c-13.04-7.85-26.2-13.48-40.22-17.2c-14.11-3.77-29.03-5.61-44.4-5.5
		c-13.93,0.07-28.85,2.58-43.13,7.24c-2.78,0.86-5.42,1.86-8.21,2.92l-0.62,0.24l-3.53,1.46c-2.88,1.26-5.61,2.46-8.2,3.79
		c-7.26,3.65-13.67,7.43-19.58,11.56c-6.21,4.33-12.29,9.18-18.07,14.4l-4.13,3.86c-0.64,0.59-1.28,1.29-1.88,1.95
		c-0.31,0.36-0.65,0.73-0.99,1.1l-0.45,0.49c-2.04,2.34-4.69,5.45-7.01,8.56c-9.09,11.92-16.01,25.21-20.58,39.51
		c-1.13,3.45-2.05,6.95-3.06,10.84l-0.4,2.04c-0.24,1.11-0.43,2.09-0.62,3.07l-0.42,2.54c-0.16,0.96-0.31,1.9-0.42,2.86l-0.02,0.22
		c-0.92,7.21-1.14,14.63-0.68,22.08c0.43,6.95,1.62,14.47,3.54,22.34c0.97,3.97,2.23,8.03,3.22,11.12l0.65,1.85
		c0.41,1.19,0.85,2.4,1.26,3.52c0.26,0.64,0.54,1.36,0.78,2.06l0.1,0.27c0.25,0.67,0.55,1.5,0.73,1.8l1.44,2.9
		c0.41,0.85,0.82,1.62,1.23,2.4c1.04,1.93,1.99,3.6,2.96,5.28c1.85,3.16,4.01,6.55,6.4,10.06c4.05,5.9,8.81,12.05,14.54,18.81
		c19.62,18.08,45.53,28.54,70.99,28.64c7.84-0.05,14.1-0.65,19.69-1.88l0.85-0.15c1.25-0.22,2.58-0.53,4.06-0.95
		c0.67-0.19,1.38-0.38,2.12-0.57c0.83-0.19,1.75-0.41,2.47-0.66c3.48-1.18,6.75-2.44,9.73-3.73c13.32-5.75,24.67-13.43,33.73-22.81
		c4.71-4.87,8.79-10.22,12.13-15.89c1.55-2.61,3.01-5.59,4.38-8.41l0.23-0.47c0.41-0.85,1.02-2.17,1.32-2.96
		c0.18-0.47,0.37-0.94,0.58-1.41l0.22-0.52l0.79-2.32c0.24-0.68,0.48-1.36,0.66-2.07c1.89-6.39,2.92-13.11,3.09-20.01
		c0.12-6.78-0.56-13.65-2.03-20.43c-1.41-6.62-3.69-13.22-6.78-19.64c-3.08-6.44-6.84-12.29-11.19-17.38
		c-4.82-5.61-9.95-10.19-15.26-13.6c-5.83-3.77-12.11-6.57-18.69-8.32l-0.79-0.21l4.54-19.58l0.81,0.16
		c8.78,1.75,17.29,4.92,25.29,9.42c7.37,4.07,14.51,9.64,21.21,16.57c6.06,6.26,11.42,13.51,15.94,21.56
		c4.45,7.95,7.91,16.26,10.28,24.69c2.46,8.7,3.9,17.61,4.29,26.5c0.36,9.31-0.46,18.52-2.46,27.38c-0.33,1.57-0.77,3.16-1.16,4.53
		l-0.18,0.66c-0.11,0.4-0.22,0.8-0.32,1.2l-0.87,2.65c-0.45,1.35-0.98,2.91-1.66,4.57l-0.72,1.78c-1.4,3.36-2.84,6.84-4.64,10.35
		c-4.07,8.05-9.18,15.73-15.21,22.82c-11.34,13.3-25.66,24.4-42.57,32.99c-3.63,1.87-7.64,3.7-12.24,5.58
		c-1.46,0.61-2.96,1.11-4.29,1.54l-1.12,0.37c-0.38,0.12-0.76,0.25-1.14,0.38c-1.66,0.58-4.2,1.43-6.98,2.07
		c-7.88,2.24-16.46,3.62-26.98,4.33c-18.04,1.07-36.89-1.57-54.51-7.65c-7.97-2.69-16.17-6.38-25.05-11.26
		c-7.51-4.24-14.95-9.35-22.75-15.62l-1.86-1.78c-15.95-16.43-27.55-31.55-36.52-47.55c-1.1-1.82-1.91-3.58-2.63-5.14l-0.37-0.81
		c-0.25-0.57-0.51-1.13-0.78-1.7c-0.85-1.87-1.51-3.45-2.17-5.02l-1.01-2.37c-1.66-4.2-3.56-9.2-5.22-14.55
		c-3.28-10.43-5.59-20.75-6.85-30.66c-1.36-10.59-1.72-21.36-1.05-32c0.06-1.52,0.22-3.11,0.37-4.65l0.07-0.74
		c0.1-0.79,0.17-1.57,0.24-2.36l0.03-0.27c0.2-1.86,0.46-3.72,0.73-5.58l0.39-2.66c0.75-4.19,1.8-9.69,3.26-15.36
		c5.09-20.42,13.95-40.43,25.62-57.87c2.94-4.52,6.12-8.78,9.12-12.71l0.24-0.29c0.33-0.39,0.64-0.78,0.95-1.18l0.73-0.92
		c1.17-1.47,2.38-2.99,3.77-4.46l5.26-5.62c7.24-7.46,15.02-14.52,23.13-20.98c7.83-6.23,16.58-12.18,26.02-17.7
		c4.43-2.64,9.02-4.98,13.08-7.04l2.45-1.19c4.23-1.95,8.6-3.97,13.17-5.71c20.39-8.07,41.37-12.93,62.35-14.45
		c21.51-1.53,42.77-0.24,63.17,3.84c10.65,2.13,21.11,5.01,31.08,8.56c9.44,3.31,19.35,7.63,29.46,12.83
		c19.07,9.84,36.8,22.44,52.69,37.46c7.66,7.25,15.04,15.2,21.92,23.63l7.12,9.23c0.94,1.26,1.88,2.53,2.76,3.81l3.5,5.2
		c1.77,2.64,3.6,5.37,5.27,8.17c11.06,17.81,20.23,36.81,27.23,56.45h0l0.09,0.22c14.15,40.16,19.2,83.71,14.61,125.95
		c-0.96,10.63-2.81,22.14-5.21,32.4c-2.35,10.28-5.48,20.84-9.31,31.4c-1.73,4.81-3.72,9.87-5.91,15.05
		c-1.66,3.88-3.93,9.07-6.85,14.72l-7.43,14.49l-8.14,13.48c-2.08,3.63-4.44,6.9-6.72,10.07l-1.04,1.46
		c-0.51,0.72-1.02,1.44-1.53,2.18l-1.43,1.96c-2.77,3.86-5.56,7.76-8.79,11.46l-3.08,3.7c-2.29,2.76-4.67,5.61-7.11,8.39l-0.33,0.33
		l-11.1,11.53c-16.1,15.74-33,29.38-50.23,40.56c-18.31,11.76-37.25,21.81-56.31,29.86c-19.83,8.16-40.03,14.75-60.06,19.6
		c-3.48,0.8-6.89,1.51-10.29,2.21l-5.04,1.03c-1,0.2-1.8,0.36-2.57,0.53c-2.05,0.46-3.86,0.8-5.7,1.08l-17.32,2.61
		c-1.28,0.2-2.36,0.33-3.37,0.42l-13.88,0.85c-1.03,0.07-2.09,0.12-3.05,0.15l-3.84,0.12
		C487.51,1699.6,483.35,1699.66,479.21,1699.66z M115.87,1414.28l0.36,1.18c5.14,16.9,11.41,33.66,18.62,49.81
		c17.86,39.89,41.48,76.15,70.2,107.79l18.41,19.03c1.31,1.34,2.67,2.72,4.24,4.06l20.4,18.16l16.11,12.46
		c1.21,0.9,2.38,1.8,3.58,2.73c3.22,2.51,6.17,4.76,9.58,6.92c8.98,6.1,18.04,11.68,27.7,17.08c19.27,10.73,39.38,19.61,59.76,26.39
		c20.36,6.79,41.66,11.73,63.33,14.68c10.74,1.47,21.84,2.48,33,2.99c10.02,0.46,20.25,0.53,30.43,0.22l3.85-0.12
		c0.94-0.02,1.98-0.07,2.99-0.14l13.87-0.85c0.95-0.08,1.98-0.21,3.23-0.41l17.33-2.61c1.8-0.28,3.58-0.61,5.59-1.06
		c0.79-0.17,1.6-0.34,2.6-0.54l5.03-1.03c3.39-0.7,6.78-1.41,10.24-2.2c19.93-4.83,40.05-11.4,59.79-19.52
		c18.96-8.01,37.81-18.01,56.04-29.72c17.14-11.12,33.94-24.69,49.95-40.33l11.39-11.83c2.38-2.72,4.75-5.57,7.04-8.31l3.09-3.71
		c3.2-3.65,5.96-7.52,8.64-11.25l1.49-2.05c0.5-0.73,1.02-1.46,1.53-2.19l1.04-1.46c2.25-3.13,4.58-6.37,6.63-9.94l8.12-13.44
		l7.4-14.44c2.9-5.61,5.15-10.75,6.8-14.61c2.18-5.15,4.15-10.18,5.88-14.96c3.81-10.49,6.92-20.99,9.25-31.2
		c2.38-10.19,4.22-21.62,5.17-32.19c4.56-41.93-0.44-85.15-14.45-125.02l-0.02-0.02l-0.07-0.19c-6.98-19.6-16.11-38.55-27.16-56.33
		c-1.66-2.78-3.48-5.49-5.23-8.11l-3.49-5.19c-0.86-1.26-1.79-2.51-2.72-3.75l-0.57-0.77l-6.52-8.42
		c-6.83-8.36-14.15-16.26-21.76-23.46c-15.77-14.9-33.37-27.41-52.3-37.18c-10.04-5.16-19.88-9.45-29.25-12.74
		c-9.89-3.52-20.27-6.38-30.84-8.49c-20.26-4.06-41.36-5.34-62.72-3.81c-20.81,1.51-41.62,6.33-61.86,14.34
		c-4.53,1.73-8.88,3.73-13.08,5.67l-2.4,1.17c-4.02,2.05-8.59,4.37-12.97,6.99c-9.37,5.48-18.06,11.39-25.82,17.57
		c-8.05,6.42-15.78,13.43-22.96,20.83l-5.25,5.62c-1.34,1.41-2.53,2.9-3.67,4.35l-0.73,0.92c-0.32,0.41-0.64,0.81-0.97,1.2
		l-0.21,0.26c-2.96,3.88-6.11,8.11-9.03,12.59c-11.57,17.29-20.35,37.12-25.39,57.35c-1.45,5.62-2.49,11.09-3.23,15.22l-0.38,2.63
		c-0.27,1.84-0.54,3.68-0.73,5.52l-0.02,0.23c-0.07,0.81-0.15,1.62-0.25,2.4l-0.07,0.72c-0.15,1.51-0.3,3.08-0.36,4.57
		c-0.66,10.55-0.31,21.21,1.04,31.7c1.25,9.82,3.54,20.04,6.79,30.37c1.64,5.3,3.54,10.26,5.17,14.41l1.01,2.36
		c0.65,1.56,1.31,3.12,2.14,4.96c0.27,0.57,0.53,1.15,0.79,1.73l0.36,0.79c0.7,1.51,1.49,3.23,2.55,4.99
		c8.91,15.9,20.43,30.9,36.27,47.22l0.73,0.76l1.01,0.91c7.69,6.18,15.05,11.24,22.48,15.43c8.78,4.83,16.89,8.48,24.77,11.14
		c17.42,6.01,36.04,8.62,53.85,7.56c10.39-0.7,18.86-2.06,26.66-4.28c2.74-0.63,5.22-1.46,6.84-2.03c0.39-0.14,0.78-0.26,1.17-0.39
		l1.12-0.36c1.3-0.42,2.77-0.9,4.17-1.49c4.57-1.87,8.53-3.67,12.12-5.53c16.72-8.49,30.86-19.45,42.06-32.58
		c5.94-6.98,10.98-14.54,14.99-22.49c1.77-3.45,3.2-6.9,4.58-10.23l0.72-1.76c0.66-1.61,1.18-3.15,1.62-4.46l0.85-2.58
		c0.08-0.35,0.2-0.77,0.32-1.2l0.18-0.65c0.38-1.35,0.81-2.9,1.14-4.44c1.96-8.73,2.78-17.8,2.42-26.95
		c-0.39-8.75-1.81-17.54-4.23-26.11c-2.34-8.31-5.75-16.49-10.13-24.32c-4.44-7.92-9.72-15.06-15.68-21.21
		c-6.58-6.8-13.59-12.27-20.82-16.27c-7.61-4.28-15.67-7.33-23.99-9.08l-3.79,16.38c6.46,1.81,12.64,4.61,18.38,8.32
		c5.44,3.5,10.7,8.18,15.63,13.92c4.44,5.21,8.29,11.18,11.42,17.75c3.15,6.54,5.47,13.27,6.91,20.02
		c1.49,6.9,2.19,13.91,2.06,20.82c-0.17,7.05-1.24,13.91-3.15,20.42c-0.19,0.72-0.44,1.45-0.69,2.18l-1.05,2.95
		c-0.19,0.46-0.38,0.91-0.56,1.36c-0.32,0.85-0.94,2.2-1.38,3.1l-0.23,0.47c-1.38,2.86-2.87,5.87-4.45,8.54
		c-3.41,5.79-7.57,11.24-12.37,16.21c-9.22,9.54-20.76,17.34-34.28,23.18c-3.02,1.31-6.34,2.58-9.86,3.78
		c-0.79,0.27-1.76,0.51-2.62,0.7c-0.7,0.18-1.4,0.37-2.06,0.56c-1.54,0.44-2.93,0.76-4.23,0.99l-0.81,0.14
		c-5.67,1.26-12.04,1.87-20.02,1.91c-25.9-0.1-52.22-10.73-72.22-29.16c-5.84-6.88-10.63-13.07-14.72-19.02
		c-2.41-3.55-4.59-6.96-6.46-10.16c-0.98-1.69-1.93-3.38-2.91-5.19l-0.08-0.15c-0.42-0.79-0.83-1.58-1.25-2.44l-1.41-2.84
		c-0.23-0.38-0.52-1.18-0.83-2.02l-0.1-0.28c-0.24-0.68-0.51-1.37-0.77-2.02c-0.43-1.15-0.87-2.37-1.28-3.57l-0.66-1.87
		c-1.01-3.15-2.28-7.24-3.26-11.26c-1.94-7.97-3.15-15.58-3.58-22.63c-0.47-7.56-0.24-15.09,0.69-22.37l0.02-0.22
		c0.12-1,0.28-1.97,0.43-2.95l0.4-2.46c0.22-1.12,0.4-2.12,0.62-3.09l0.43-2.2c1.02-3.97,1.95-7.5,3.1-10.99
		c4.62-14.47,11.63-27.94,20.84-40c2.35-3.15,5.03-6.29,7.1-8.67l0.47-0.51c0.33-0.36,0.65-0.71,0.97-1.07
		c0.64-0.7,1.3-1.43,1.99-2.07l4.14-3.87c5.84-5.28,11.97-10.17,18.24-14.55c5.98-4.17,12.46-7.99,19.79-11.68
		c2.63-1.35,5.38-2.56,8.28-3.83l4.23-1.73c2.82-1.07,5.48-2.08,8.3-2.95c14.43-4.72,29.53-7.25,43.63-7.32
		c15.45-0.12,30.59,1.75,44.85,5.56c14.18,3.77,27.48,9.45,40.66,17.39c12.42,7.46,23.86,16.75,33.99,27.63
		c4.98,5.37,9.65,11.1,13.88,17.01l3.2,4.67c0.4,0.63,0.79,1.23,1.18,1.81c0.55,0.84,1.09,1.68,1.61,2.54
		c0.76,1.36,1.52,2.64,2.29,3.95l0.14,0.24c1.13,1.94,2.21,3.77,3.25,5.82c7.2,13.46,12.95,27.6,17.08,42
		c8.18,29.33,9.7,59.24,4.53,88.9c-1.17,7.57-2.56,13.81-4.67,20.85c-1.96,6.53-4.47,13.32-7.46,20.17
		c-1.36,3.16-2.94,6.51-4.67,9.96c-1.3,2.58-3.28,6.41-5.35,9.74l-5.59,9.48l-6.56,9.35c-1.08,1.74-2.55,3.48-4.1,5.33l-0.85,1.04
		c-0.48,0.58-0.94,1.14-1.34,1.65l-1.74,2.15c-1.7,2.08-3.31,4.05-5.03,5.73l-3.61,3.78c-1.36,1.46-2.73,2.9-4.13,4.32l-8.15,7.39
		c-12.02,10.24-23.71,18.5-35.74,25.25c-13.7,7.53-27.42,13.7-40.77,18.35c-14.85,4.97-29.61,8.76-43.88,11.26
		c-2.17,0.35-4.34,0.66-6.5,0.97l-0.25,0.03c-1.2,0.15-2.37,0.32-3.46,0.48l-1.07,0.16c-0.66,0.08-1.29,0.18-1.95,0.28l-0.41,0.06
		c-1.18,0.19-2.16,0.33-3.05,0.37l-10.72,0.95c-0.36,0.02-0.68,0.06-1.02,0.1l-0.46,0.05c-0.2,0.02-0.4,0.05-0.59,0.05l-8.98-0.1
		c-0.44,0-0.87,0-1.35-0.02l-3.01-0.12c-15.25-0.49-30.17-2.19-44.32-5.06c-28.39-5.72-55.06-16.57-79.27-32.25
		c-6.19-4-12.25-8.3-17.51-12.42l-0.38-0.27c-1.57-1.08-3.25-2.6-4.98-4.18c-0.96-0.86-1.93-1.73-2.82-2.48l-10.44-9.12
		l-14.14-14.36c-0.62-0.57-1.3-1.39-2.03-2.25l-0.12-0.14l-11.96-14.03c-18.01-22.69-32.34-48.19-42.61-75.82
		c-18.34-49.19-22.89-104.22-13.17-159.15l0.15-0.64c3.56-7.21,7.04-14.79,10.36-22.54c18.81-44.08,30.53-90.68,34.82-138.52
		l0.03-0.37l0.3-0.23c3.18-2.4,6.43-4.94,9.66-7.54c-3.77-23.71-5.68-48.1-5.68-72.51c0-23.94,1.84-47.89,5.47-71.16
		c2.53-16.3,5.94-32.52,10.15-48.22c25-93.58,80.52-178.75,156.34-239.86c-6.08-38.07-17.02-75.37-32.53-110.87
		c-39.01-89.09-106.93-165.04-191.24-213.85l-1.93-1.11l2.18-0.45c30.65-6.35,62.21-9.57,93.81-9.57
		c99.63,0,194.45,31.25,274.26,90.37c22.99-28.36,42.53-59.34,58.11-92.1c-138.4-52.87-243.49-169.66-281.35-312.7
		C237.07,25.63,107.09,124.35,42.67,266.12C15.48,325.94,1.7,389.84,1.7,456.04c0,3.16,0.02,6.32,0.1,9.48
		c0.05,3.02,0.15,6.01,0.27,9.02c0.36,9.06,1,18.21,1.9,27.18c4.59,46.57,16.21,91.92,34.55,134.8
		c31.7,74.19,82.74,139.07,147.61,187.61l0.32,0.24l0.02,0.4c0.24,6.16,0.37,12.41,0.37,18.57c0,113.26-41.43,222.11-116.69,306.62
		c12.59,9.12,25.73,17.66,39.07,25.38c0.35-0.06,0.7-0.14,1.06-0.22l2.35-0.48l-0.62,1.47c-0.18,0.43-0.34,0.87-0.48,1.33
		c-17.92,49.79-27,102.09-27,155.51c0,32.67,3.44,65.2,10.21,96.71c6.83-4.67,13.61-9.6,20.16-14.66L115.87,1414.28z M401.56,223.41
		c-23.3,0-42.26-18.96-42.26-42.26s18.96-42.26,42.26-42.26c23.3,0,42.26,18.96,42.26,42.26S424.87,223.41,401.56,223.41z
		 M401.56,140.58c-22.37,0-40.56,18.2-40.56,40.56s18.2,40.56,40.56,40.56c22.37,0,40.56-18.2,40.56-40.56
		S423.93,140.58,401.56,140.58z"/>
</g>
</svg>
